<?xml version="1.0" encoding="utf-8"?>
<!-- Generator: Adobe Illustrator 21.0.0, SVG Export Plug-In . SVG Version: 6.00 Build 0)  -->
<svg version="1.1" id="Layer_1" xmlns="http://www.w3.org/2000/svg" xmlns:xlink="http://www.w3.org/1999/xlink" x="0px" y="0px"
	 width="776.6px" height="236.3px" viewBox="0 0 776.6 236.3" enable-background="new 0 0 776.6 236.3" xml:space="preserve">
<g>
	<polygon fill="#1D2362" points="760.5,207.2 771.5,223.8 771.5,207.2 776.4,207.2 776.4,233 771.8,233 760.7,216.4 760.7,233 
		755.8,233 755.8,207.2 	"/>
	<path fill="#1D2362" d="M478,38v55.3h39.9c21.5,0,29.3-14.1,29.3-28.7c0-17.4-9-26.6-30.6-26.6H478z M430.1,192.3V3.1l94.4-0.2
		c51.1,0,70,27.5,70,61.4c0,25.2-14.1,64.1-79,64.1h-36.9v63.7L430.1,192.3z"/>
	<polygon fill="#1D2362" points="609.7,192.1 657,192.1 657,112.4 729.3,112.4 729.3,192.1 776.6,192.1 776.6,2.8 729.3,2.8 
		729.3,70.9 657,70.9 657,2.8 609.7,2.8 	"/>
	<path fill="#1D2362" d="M369.1,2.8v118.4c-0.3,14.8-0.3,36.9-32.2,36.9c-11.7,0-24.4-3-30.2-13c-3.2-5.9-3.4-14-3.4-23.7V2.8h-47.2
		v106.3c-0.3,25.9-0.3,59.4,35.8,78.2c12.7,6.7,29.4,10.2,43.4,10.2c8,0,49.6-1.6,69.8-34.5c10.3-17.2,10.6-35.6,10.8-53.9V2.8
		H369.1z"/>
	<path fill="#1D2362" d="M276,221.9c0,2.5-0.2,4.5-0.9,6c-0.6,1.6-1.7,3-3.3,3.9c-1.6,1-3.6,1.5-6.1,1.5c-2.3,0-4.3-0.4-6-1.3
		c-1.6-0.9-2.7-2.2-3.4-3.9c-0.7-1.6-1.1-3.7-1.1-6.3v-14.7h5.1v14.7c0,2.1,0.2,3.4,0.5,4.2c0.4,0.8,0.9,1.4,1.6,1.8
		c0.8,0.5,1.8,0.7,3,0.7c2.2,0,3.6-0.5,4.3-1.3c0.7-0.8,1.2-2.4,1.2-5.5V207h5L276,221.9L276,221.9z"/>
	<polygon fill="#1D2362" points="284.3,207.2 295.4,223.8 295.4,207.2 300.4,207.2 300.4,233 295.6,233 284.6,216.4 284.6,233 
		279.7,233 279.7,207.2 	"/>
	<rect x="304.6" y="207.2" fill="#1D2362" width="5.1" height="25.8"/>
	<polygon fill="#1D2362" points="316.3,207.2 322.7,225.2 323,226.3 323.4,225.1 330.1,207.2 335.4,207.2 325.3,233 320.7,233 
		310.8,207.2 	"/>
	<polygon fill="#1D2362" points="355.4,207.2 355.4,211.9 341.3,211.9 341.3,217.3 354.5,217.3 354.5,222 341.3,222 341.3,228.2 
		355.9,228.2 355.9,233 336.3,233 336.3,207.2 	"/>
	<path fill="#1D2362" d="M370.3,207.2c2.3,0,4,0.2,5.2,0.7c1.4,0.4,2.4,1.4,3.1,2.6c0.8,1.3,1.2,2.6,1.2,4.1c0,1.9-0.7,3.5-1.9,4.9
		c-0.8,0.9-1.9,1.5-3.3,2c1.1,1,2,2.1,2.9,3.4l5.1,8h-6.2l-3.4-5.4c-0.9-1.4-1.6-2.5-2.3-3.2c-0.5-0.7-1-1.1-1.3-1.4
		c-0.4-0.2-0.8-0.4-1.2-0.5c-0.2,0-0.8-0.1-1.5-0.1H364v10.6h-5v-25.8h11.3V207.2z M372.7,217.3c0.6-0.2,1.1-0.6,1.3-1
		c0.3-0.5,0.5-1.1,0.5-1.6c0-0.9-0.3-1.5-0.9-2.1c-0.6-0.5-1.5-0.9-3.3-0.9h-6.6v6h5.8C371.1,217.7,372,217.6,372.7,217.3"/>
	<path fill="#1D2362" d="M386.9,224c0.2,1.1,0.4,1.9,0.8,2.5c0.5,0.6,1,1.1,2,1.5c0.9,0.4,2.1,0.6,3.4,0.6c1,0,2-0.2,2.8-0.5
		s1.3-0.7,1.6-1.2c0.4-0.5,0.6-0.9,0.6-1.5c0-0.5-0.2-1-0.5-1.3c-0.3-0.4-0.8-0.8-1.7-1.2c-0.7-0.2-2.1-0.6-4.1-1.1
		c-2.2-0.6-3.8-1.1-4.8-1.6c-1.3-0.7-2.3-1.4-3-2.5c-0.6-1.1-0.9-2.2-0.9-3.5c0-1.4,0.4-2.6,1.2-3.8c0.8-1.3,2-2.2,3.4-2.8
		s3-0.9,4.7-0.9c1.9,0,3.6,0.3,5,0.9c1.5,0.7,2.7,1.6,3.6,2.9c0.8,1.3,1.3,2.7,1.3,4.3v0.9l-4.8,0.4l-0.1-1
		c-0.1-1.3-0.6-2.2-1.3-2.8c-0.7-0.6-1.8-0.9-3.6-0.9c-1.8,0-2.9,0.4-3.5,0.9c-0.6,0.6-0.9,1.1-0.9,1.8c0,0.6,0.2,1,0.7,1.4
		c0.3,0.3,1.7,0.9,4.3,1.5c2.6,0.6,4.4,1.1,5.5,1.6c1.5,0.7,2.7,1.6,3.5,2.7c0.7,1.2,1.1,2.5,1.1,4c0,1.4-0.4,2.8-1.2,4.1
		c-0.9,1.3-2,2.3-3.6,3c-1.5,0.7-3.2,1-5,1c-2.2,0-4.2-0.3-5.8-1c-1.6-0.7-2.8-1.7-3.8-3.2c-0.9-1.4-1.4-3.1-1.5-4.8l-0.1-0.9
		l4.8-0.5L386.9,224z"/>
	<rect x="406.2" y="207.2" fill="#1D2362" width="5" height="25.8"/>
	<polygon fill="#1D2362" points="413.5,211.9 413.5,207.2 434.3,207.2 434.3,211.9 426.4,211.9 426.4,233 421.3,233 421.3,211.9 	
		"/>
	<path fill="#1D2362" d="M447.5,207.2L458,233h-5.7l-2.8-7.2h-8.6l-2.6,7.2h-5.4l9.9-25.8H447.5z M445.8,216
		c-0.2-0.7-0.4-1.3-0.7-1.9c-0.1,0.5-0.3,0.9-0.6,1.5l-2.1,5.7h5.3L445.8,216z"/>
	<path fill="#1D2362" d="M462.3,224c0.1,1.1,0.4,1.9,0.9,2.5c0.4,0.6,1,1.1,2,1.5c0.9,0.4,2.1,0.6,3.2,0.6s2.1-0.2,2.8-0.5
		c0.8-0.3,1.3-0.7,1.6-1.2c0.3-0.5,0.5-0.9,0.5-1.5c0-0.5-0.2-1-0.4-1.3c-0.4-0.4-0.8-0.8-1.8-1.2c-0.5-0.2-1.9-0.6-4.1-1.1
		c-2.2-0.6-3.8-1.1-4.8-1.6c-1.2-0.7-2.2-1.4-2.9-2.5c-0.6-1.1-1-2.2-1-3.5c0-1.4,0.4-2.6,1.2-3.8c0.8-1.3,2-2.2,3.4-2.8
		c1.5-0.6,3-0.9,4.8-0.9s3.5,0.3,5,0.9c1.5,0.7,2.8,1.6,3.6,2.9c0.8,1.3,1.2,2.7,1.2,4.3l0.1,0.9l-4.9,0.4l-0.1-1
		c-0.2-1.3-0.6-2.2-1.3-2.8c-0.6-0.6-1.8-0.9-3.6-0.9c-1.8,0-2.9,0.4-3.6,0.9c-0.6,0.6-1,1.1-1,1.8c0,0.6,0.3,1,0.7,1.4
		c0.4,0.3,1.7,0.9,4.3,1.5c2.6,0.6,4.4,1.1,5.5,1.6c1.5,0.7,2.7,1.6,3.5,2.7c0.8,1.2,1.2,2.5,1.2,4c0,1.4-0.4,2.8-1.3,4.1
		c-0.8,1.3-2,2.3-3.5,3s-3.2,1-5,1c-2.2,0-4.2-0.3-5.8-1c-1.6-0.7-2.9-1.7-3.8-3.2c-1-1.4-1.4-3.1-1.5-4.8v-0.9l4.7-0.5L462.3,224z"
		/>
	<path fill="#1D2362" d="M500.6,207.2c1.7,0,2.9,0.1,3.7,0.3c1.3,0.2,2.4,0.6,3.4,1.2c0.9,0.7,1.6,1.6,2.1,2.7
		c0.6,1.1,0.8,2.4,0.8,3.6c0,2.3-0.7,4.2-2.2,5.8c-1.6,1.7-4.3,2.4-7.7,2.4h-5.2v9.7h-5v-25.8h10.1V207.2z M504.6,217.7
		c0.5-0.6,1-1.4,1-2.6c0-0.8-0.3-1.4-0.6-2c-0.3-0.5-0.8-0.9-1.4-1c-0.4-0.1-1.3-0.1-2.7-0.1h-5.2v6.6h5.2
		C502.9,218.6,504,218.2,504.6,217.7"/>
	<polygon fill="#1D2362" points="532.3,207.2 532.3,211.9 518.2,211.9 518.2,217.3 531.5,217.3 531.5,222 518.2,222 518.2,228.2 
		532.9,228.2 532.9,233 513.2,233 513.2,207.2 	"/>
	<polygon fill="#1D2362" points="540.6,207.2 540.6,228.2 552.3,228.2 552.3,233 535.6,233 535.6,207.2 	"/>
	<rect x="555.1" y="207.2" fill="#1D2362" width="5" height="25.8"/>
	<polygon fill="#1D2362" points="562.3,211.9 562.3,207.2 583.1,207.2 583.1,211.9 575.3,211.9 575.3,233 570.2,233 570.2,211.9 	
		"/>
	<path fill="#1D2362" d="M596.3,207.2l10.6,25.8h-5.7l-2.7-7.2h-8.7l-2.6,7.2h-5.4l9.9-25.8H596.3z M594.7,216
		c-0.3-0.7-0.5-1.3-0.7-1.9c-0.1,0.5-0.3,0.9-0.5,1.5l-2.1,5.7h5.3L594.7,216z"/>
	<polygon fill="#1D2362" points="622.1,207.2 622.1,217 632.6,217 632.6,207.2 637.6,207.2 637.6,233 632.6,233 632.6,221.7 
		622.1,221.7 622.1,233 617,233 617,207.2 	"/>
	<path fill="#1D2362" d="M652.8,207.2l10.5,25.8h-5.6l-2.8-7.2h-8.7l-2.6,7.2h-5.4l9.9-25.8H652.8z M651.2,216
		c-0.3-0.7-0.5-1.3-0.7-1.9c-0.1,0.5-0.3,0.9-0.5,1.5l-2.2,5.7h5.3L651.2,216z"/>
	<path fill="#1D2362" d="M675.4,207.2c2.1,0,3.8,0.2,5.2,0.7c1.3,0.4,2.4,1.4,3.1,2.6c0.7,1.3,1.2,2.6,1.2,4.1
		c0,1.9-0.6,3.5-1.9,4.9c-0.8,0.9-1.9,1.5-3.2,2c1,1,1.9,2.1,2.8,3.4l5.1,8h-6.2l-3.4-5.4c-0.9-1.4-1.6-2.5-2.2-3.2
		c-0.6-0.7-1.1-1.1-1.4-1.4c-0.3-0.2-0.8-0.4-1.1-0.5c-0.3,0-0.7-0.1-1.5-0.1h-2.7v10.6h-5.1v-25.8h11.3V207.2z M677.8,217.3
		c0.6-0.2,1.1-0.6,1.4-1c0.3-0.5,0.5-1.1,0.5-1.6c0-0.9-0.3-1.5-1-2.1c-0.5-0.5-1.6-0.9-3.2-0.9h-6.6v6h5.8
		C676.1,217.7,677.1,217.6,677.8,217.3"/>
	<path fill="#1D2362" d="M699.7,207.2l10.5,25.8h-5.7l-2.7-7.2h-8.6l-2.6,7.2h-5.4l9.8-25.8H699.7z M698.1,216
		c-0.3-0.7-0.5-1.3-0.7-1.9c-0.1,0.5-0.3,0.9-0.5,1.5l-2.1,5.7h5.3L698.1,216z"/>
	<path fill="#1D2362" d="M720.7,207.2c1.7,0,2.9,0.1,3.8,0.3c1.3,0.2,2.4,0.6,3.3,1.2c0.9,0.7,1.7,1.6,2.2,2.7
		c0.6,1.1,0.8,2.4,0.8,3.6c0,2.3-0.7,4.2-2.2,5.8c-1.6,1.7-4.2,2.4-7.7,2.4h-5.2v9.7h-5v-25.8h10V207.2z M724.7,217.7
		c0.7-0.6,1-1.4,1-2.6c0-0.8-0.3-1.4-0.6-2c-0.4-0.5-0.8-0.9-1.5-1c-0.4-0.1-1.3-0.1-2.7-0.1h-5.1v6.6h5.2
		C723,218.6,724.1,218.2,724.7,217.7"/>
	<path fill="#1D2362" d="M744.9,207.2l10.4,25.8h-5.6l-2.8-7.2h-8.6l-2.7,7.2h-5.4l9.8-25.8H744.9z M743.2,216
		c-0.2-0.7-0.5-1.3-0.7-1.9c-0.1,0.5-0.3,0.9-0.4,1.5l-2.2,5.7h5.3L743.2,216z"/>
	<path fill="#E20613" d="M2.2,108.5C7.8,44.6,64-2.6,127.9,3c63.8,5.6,111,61.9,105.4,125.7s-61.8,111-125.6,105.5
		C43.9,228.4-3.4,172.2,2.2,108.5"/>
	<path fill="#1D2362" d="M4,108.6C9.4,45.8,65-0.7,127.7,4.8s109.3,61,103.9,123.7c-5.5,62.8-61,109.3-123.8,103.9
		c-30.4-2.6-57.9-17-77.5-40.4S1.3,138.9,4,108.6 M107.5,235.8c64.7,5.7,121.9-42.3,127.6-107C240.7,64.2,192.8,6.9,128,1.3
		C63.4-4.3,6.1,43.7,0.5,108.3c-2.8,31.4,6.9,61.9,27,85.9C47.8,218.3,76.2,233.1,107.5,235.8"/>
	<path fill="#FFFFFF" d="M31.9,111c4.1-47.5,46-82.5,93.4-78.4c47.5,4.2,82.6,46,78.4,93.5c-4.1,47.4-46,82.5-93.4,78.4
		C62.8,200.3,27.7,158.5,31.9,111"/>
	<path fill="#1D2362" d="M33.6,111.2c1.9-22.5,12.5-42.8,29.9-57.4c17.2-14.5,39.2-21.4,61.6-19.4c22.4,1.9,42.9,12.6,57.4,29.8
		c14.4,17.4,21.3,39.3,19.4,61.7c-4.1,46.4-45.1,80.9-91.6,76.8C64,198.7,29.5,157.5,33.6,111.2 M110.1,206.2
		c48.3,4.2,91.1-31.7,95.3-80c2-23.4-5.2-46.2-20.3-64.3c-15.1-17.9-36.4-29-59.7-31.1c-23.4-2-46.3,5.1-64.3,20.2
		s-29,36.4-31.1,59.9C25.9,159.2,61.7,202,110.1,206.2"/>
	<path fill="#FCC200" d="M25.5,205.5l-4.2,8.2c0,0,6.5,3,21.9,2c22.9-1.5,33.5,6.9,33.5,6.9c0.9,0.7,2,0.8,3.6,0.3
		c0,0,8.5-6,18.6-4.3c11,1.7,22.4,3.4,29.8,4.5c7.4,1,15.7,2.6,15.7,2.6l42.1-40.8c0,0,2.3-5.1-2.2-6.8c-4.6-1.7-3.3-0.6-3.3-0.6
		l-40.6,36L89.7,208l-9.7,3.5c-10.8-3.7-26.2-6.1-46-7L25.5,205.5z"/>
	<path fill="#1D1D1B" d="M25.2,205.3l-4.2,8.1l-0.2,0.4l0.5,0.1c0.2,0.2,6.7,3.1,22,2c22.5-1.4,33.2,6.8,33.3,6.8
		c1,0.7,2.3,0.8,3.9,0.4l0.1-0.1h0.1c0.1,0,8.4-5.9,18.2-4.3c10.6,1.7,21.7,3.3,29.1,4.4l0.8,0.1c7.3,1.1,15.6,2.5,15.6,2.5l0.2,0.1
		l0.2-0.1l42.1-40.7h0.1v-0.1c0-0.2,1.2-2.7,0.2-4.9c-0.5-1.2-1.4-2-2.8-2.5c-3.3-1.3-3.7-1.1-4-0.7c-0.1,0.3-0.1,0.5,0.2,0.8v-0.7
		L140,212.8h0.4l-50.8-5.5l0,0h-0.1l-9.7,3.5h0.4c-10.8-3.7-26.4-6.1-46.1-7H34l0,0l-8.4,1.2h-0.3L25.2,205.3z M33.9,204.8
		c19.7,0.9,35.1,3.2,45.9,6.9l0.1,0.1l0.2-0.1l9.7-3.5l-0.2,0.1l50.7,5.4l0.2,0.1l0.1-0.1l40.5-36l0.3-0.3l-0.3-0.3l0,0v0.3
		c-0.1,0.1-0.2,0.2-0.2,0.2c0.1-0.1,0.6-0.1,3.1,0.9c1.1,0.4,1.9,1.1,2.3,2.1c0.8,1.9-0.2,4.1-0.2,4.1l0,0L144,225.3l0.3-0.1
		c-0.1,0-8.4-1.5-15.7-2.5l-0.8-0.1c-7.3-1-18.4-2.6-29-4.4c-10.2-1.7-18.8,4.4-18.8,4.5h0.1c-1.4,0.3-2.5,0.2-3.2-0.3
		c-0.2,0-11-8.5-33.9-7c-15.1,1.1-21.6-1.9-21.6-1.9l0.2,0.5l4.2-8.2l-0.3,0.2l8.4-1.1h0V204.8z"/>
	<path fill="#1D1D1B" d="M80.9,216L80.9,216c0.1,0,5.7-5.2,20.3-3c14.7,2.3,40.8,6,41,6l0.2,0.1l0.1-0.1l40.5-38.6l-0.6-0.6
		L142,218.4l0.3-0.1c-0.3,0-26.3-3.8-41-6c-13.4-2.1-19.4,1.9-21,3.2L80.9,216z"/>
	<path fill="#1D1D1B" d="M81.3,218.1L81.3,218.1c0-0.1,5.9-5.4,20.5-3.2c14.8,2.3,40.8,6,41.1,6.1h0.2l0.1-0.1l41.7-39.2l-0.6-0.7
		l-41.7,39.2l0.3-0.1c-0.3,0-26.3-3.8-41-6c-15-2.3-21.1,3.2-21.3,3.4L81.3,218.1z"/>
	<path fill="#1D1D1B" d="M81.2,220.5L81.2,220.5c0.1,0,7.7-5.2,21.5-3.3c14.8,2,40.8,6,41,6.1h0.2l0.2-0.2l42-39.4l-0.6-0.6
		l-41.9,39.4h0.3c-0.3-0.1-26.2-4.1-41.1-6c-13.1-1.8-20.7,2.5-22.1,3.4L81.2,220.5z"/>
	<path fill="#FFFFFF" d="M74.6,170.6l-48.9,34.7c0,0,0.2,0.9,3.7,1.3c6,0.8,10.6,1,18,0.8c7.5-0.1,14.3,0,19.7,1.6
		c5.3,1.6,9.2,3.4,9.2,3.4s2.8,0.7,4,0.7s3.4-3.1,13.6-2.9c10.4,0.1,47.9,6.1,47.9,6.1l40.9-39.4c0,0-36.5-0.9-48.2-1.4
		c-11.7-0.6-16.1,1.5-16.1,1.5s-3.1-5.3-17.3-5.1C86,172.3,75.1,170.7,74.6,170.6"/>
	<path fill="#1D1D1B" d="M74.3,170.3l-49,34.7l-0.2,0.1v0.3c0.1,0.2,0.6,1.2,4.2,1.7c6,0.8,10.6,0.8,18.1,0.8
		c6.6-0.1,14-0.1,19.6,1.6c5.2,1.4,9.1,3.3,9.1,3.3l0,0h0.1c0.1,0,2.9,0.7,4.1,0.7c0.4,0,0.8-0.1,1.4-0.5c1.5-0.7,4.7-2.5,12.2-2.3
		c10.2,0.1,47.5,6.1,47.9,6.1h0.2l0.1-0.1l40.9-39.5l0.7-0.7h-1c-0.4,0-36.6-0.8-48.2-1.3c-11.7-0.6-16.1,1.4-16.3,1.5l0.5,0.2
		c-0.2-0.2-3.4-5.6-17.6-5.2c-15,0.3-25.9-1.3-26.4-1.3l-0.2-0.1L74.3,170.3z M101.2,172.4c13.7-0.3,16.9,4.7,16.9,4.8l0.2,0.3
		l0.4-0.2c0,0,4.5-1.9,15.9-1.5c11.6,0.5,47.9,1.4,48.3,1.4l-0.3-0.7l-41,39.4l0.5-0.1c-0.5-0.1-37.8-6.1-48.1-6.2
		c-7.8-0.1-11.1,1.6-12.6,2.5c-0.5,0.2-0.8,0.4-1,0.4c-1.1,0-3.9-0.7-3.9-0.7v0.1c0-0.1-3.9-1.9-9.2-3.4c-5.7-1.6-13.3-1.7-19.8-1.5
		c-7.4,0.1-12,0-18-0.8c-3-0.4-3.4-1-3.4-1l-0.1,0.5l49-34.8l-0.4,0.1C74.9,171.1,85.8,172.7,101.2,172.4"/>
	<path fill="#1D1D1B" d="M26.2,208.4c0.1,0,8.6,2.4,21.1,1.4c19-1.4,28.4,5.3,28.4,5.3l0.5-0.6c-0.4-0.3-9.7-6.9-29.1-5.5
		c-12.3,0.9-20.7-1.4-20.8-1.4L26.2,208.4z"/>
	<path fill="#1D1D1B" d="M24,212.8c0.1,0,9.4,2.3,22,1.3c18.9-1.3,30.3,6.5,30.4,6.6l0.5-0.7c-0.2-0.1-11.7-8.1-31.1-6.7
		c-12.4,0.9-21.6-1.3-21.7-1.4L24,212.8z"/>
	<path fill="#1D1D1B" d="M25.2,210.5c0.1,0.1,8.6,2.5,21.1,1.6c19-1.3,28.9,5.2,29,5.2l0.5-0.7c-0.1,0-10.3-6.7-29.6-5.3
		c-12.4,1-20.7-1.5-20.8-1.6L25.2,210.5z"/>
	<polygon fill="#1D1D1B" points="34.8,203.3 53.7,203.8 53.7,203 34.8,202.5 	"/>
	<path fill="#1D1D1B" d="M59.3,203.9c5.9,0.7,7.8,1,11.3,1.9l4.1,0.9l0.2-0.8l-4.2-1c-3.4-0.7-5.4-1.2-11.3-1.8L59.3,203.9z"/>
	<polygon fill="#1D1D1B" points="37.9,200.8 56.7,201.6 56.8,200.8 38,199.9 	"/>
	<polygon fill="#1D1D1B" points="40.8,198.5 59.8,199.4 59.8,198.6 40.8,197.6 	"/>
	<polygon fill="#1D1D1B" points="43.6,196.6 62.9,197.3 62.9,196.4 43.6,195.8 	"/>
	<polygon fill="#1D1D1B" points="46.6,194.5 65.9,195 66,194.2 46.6,193.7 	"/>
	<polygon fill="#1D1D1B" points="49.5,192.4 68.9,192.8 68.9,192 49.5,191.6 	"/>
	<polygon fill="#1D1D1B" points="52.9,190 72,190.7 72.1,189.8 53,189.1 	"/>
	<polygon fill="#1D1D1B" points="55.8,188 75,188.5 75,187.6 55.9,187.1 	"/>
	<polygon fill="#1D1D1B" points="59.1,185.7 78.1,186.2 78.1,185.5 59.1,184.9 	"/>
	<polygon fill="#1D1D1B" points="62.9,183.6 81.2,184.1 81.2,183.2 62.9,182.7 	"/>
	<polygon fill="#1D1D1B" points="65.9,181.3 84.2,181.9 84.2,181 65.9,180.4 	"/>
	<polygon fill="#1D1D1B" points="69,178.9 87.2,179.7 87.2,178.9 69,178.1 	"/>
	<polygon fill="#1D1D1B" points="72,176.8 90.3,177.4 90.3,176.6 72,176 	"/>
	<path fill="#1D1D1B" d="M74.5,174.2c5.1,0.7,9.2,0.8,13.4,0.9c1.7,0.1,3.6,0.1,5.5,0.2v-0.9c-1.9,0-3.8-0.1-5.5-0.1
		c-4.1-0.2-8.3-0.3-13.2-0.8L74.5,174.2z"/>
	<path fill="#1D1D1B" d="M62.2,201.6c5.9,0.7,7.8,1.1,11.2,1.9l4.1,0.9l0.2-0.8l-4-0.9c-3.6-0.8-5.4-1.4-11.4-1.9L62.2,201.6z"/>
	<path fill="#1D1D1B" d="M65,199.4c6,0.6,7.9,1,11.4,1.8l4.1,0.9l0.2-0.8l-4.1-0.9c-3.5-0.8-5.4-1.2-11.4-1.9L65,199.4z"/>
	<path fill="#1D1D1B" d="M68,197.2c5.9,0.7,7.8,1.1,11.3,1.9l4.1,0.9l0.2-0.8l-4.1-0.9c-3.5-0.8-5.4-1.2-11.4-1.9L68,197.2z"/>
	<path fill="#1D1D1B" d="M70.8,195c6,0.6,7.9,1.1,11.4,1.9l4.1,0.9l0.2-0.8l-4.1-0.9c-3.5-0.8-5.4-1.3-11.4-1.9L70.8,195z"/>
	<path fill="#1D1D1B" d="M73.8,192.7c5.9,0.7,7.8,1.1,11.4,1.9l4,0.9l0.2-0.9l-4.1-0.9c-3.5-0.8-5.4-1.2-11.5-1.9V192.7z"/>
	<path fill="#1D1D1B" d="M76.7,190.5c5.9,0.7,7.8,1.1,11.2,1.9l4.2,0.9l0.2-0.8l-4.1-0.9c-3.5-0.8-5.4-1.3-11.4-1.9L76.7,190.5z"/>
	<path fill="#1D1D1B" d="M79.6,188.4c6,0.7,7.8,1,11.3,1.9l4.2,0.9l0.1-0.8l-4.1-1c-3.5-0.8-5.4-1.3-11.4-1.9L79.6,188.4z"/>
	<path fill="#1D1D1B" d="M82.5,186.1c5.9,0.7,7.8,1.1,11.3,1.9l4.1,1l0.1-0.9l-4.1-0.9c-3.5-0.7-5.4-1.2-11.4-1.9L82.5,186.1z"/>
	<path fill="#1D1D1B" d="M85.3,183.9c5.9,0.6,7.9,1.1,11.3,1.8l4.1,0.9l0.2-0.8l-4.1-0.9c-3.5-0.8-5.4-1.2-11.4-1.9L85.3,183.9z"/>
	<path fill="#1D1D1B" d="M88.2,181.7c5.9,0.6,7.9,1,11.4,1.8l4.1,0.9l0.2-0.8l-4.1-0.9c-3.5-0.7-5.5-1.2-11.4-1.9L88.2,181.7z"/>
	<path fill="#1D1D1B" d="M91.1,179.5c5.9,0.7,7.8,1.1,11.3,1.9l4.1,0.9l0.2-0.8l-4.1-0.9c-3.5-0.8-5.4-1.2-11.4-1.9L91.1,179.5z"/>
	<path fill="#1D1D1B" d="M94,177.3c6,0.6,7.8,1,11.4,1.9l4.1,0.9l0.2-0.8l-4.1-0.9c-3.5-0.8-5.5-1.3-11.5-1.9L94,177.3z"/>
	<path fill="#1D1D1B" d="M96.9,175.1c5.9,0.6,7.9,1.1,11.3,1.9l4.1,0.9l0.2-0.9l-4.1-0.9c-3.5-0.8-5.5-1.2-11.4-1.9L96.9,175.1z"/>
	<polygon fill="#1D1D1B" points="96,207.1 115.1,209 115.2,208.2 96.1,206.2 	"/>
	<polygon fill="#1D1D1B" points="119.6,209.6 137.6,212.5 137.7,211.7 119.8,208.8 	"/>
	<polygon fill="#1D1D1B" points="98.9,204.8 118,206.8 118,206 99,204 	"/>
	<polygon fill="#1D1D1B" points="101.8,202.6 120.9,204.6 121,203.8 102,201.7 	"/>
	<polygon fill="#1D1D1B" points="104.7,200.4 123.8,202.4 123.9,201.6 104.8,199.6 	"/>
	<polygon fill="#1D1D1B" points="107.7,198.2 126.7,200.2 126.8,199.4 107.8,197.3 	"/>
	<polygon fill="#1D1D1B" points="110.5,196 129.6,197.9 129.7,197.1 110.6,195.2 	"/>
	<polygon fill="#1D1D1B" points="113.4,193.8 132.6,195.7 132.7,194.9 113.6,192.9 	"/>
	<polygon fill="#1D1D1B" points="116.3,191.6 135.4,193.5 135.5,192.7 116.4,190.7 	"/>
	<polygon fill="#1D1D1B" points="119.2,189.3 138.3,191.4 138.4,190.5 119.3,188.5 	"/>
	<polygon fill="#1D1D1B" points="122.2,187.1 141.2,189.1 141.3,188.3 122.2,186.2 	"/>
	<polygon fill="#1D1D1B" points="122.5,207.4 140.5,210.3 140.6,209.5 122.6,206.6 	"/>
	<polygon fill="#1D1D1B" points="125.4,205.2 143.3,208 143.4,207.3 125.5,204.3 	"/>
	<polygon fill="#1D1D1B" points="128.3,203 146.2,205.8 146.3,205 128.5,202.2 	"/>
	<polygon fill="#1D1D1B" points="131.2,200.7 149.1,203.6 149.3,202.8 131.3,199.9 	"/>
	<polygon fill="#1D1D1B" points="134.1,198.5 152,201.4 152.2,200.6 134.3,197.7 	"/>
	<polygon fill="#1D1D1B" points="137,196.3 154.9,199.2 155.1,198.3 137.1,195.4 	"/>
	<polygon fill="#1D1D1B" points="139,193.5 156.9,196.4 157.1,195.6 139.1,192.7 	"/>
	<polygon fill="#1D1D1B" points="141.1,190.7 159.1,193.6 159.2,192.7 141.2,189.9 	"/>
	<polygon fill="#1D1D1B" points="144.1,188.2 161.9,191.1 162.1,190.4 144.2,187.4 	"/>
	<polygon fill="#1D1D1B" points="146.7,185.6 164.6,188.5 164.8,187.6 146.8,184.7 	"/>
	<polygon fill="#1D1D1B" points="149.9,183.1 167.8,186.1 167.9,185.2 149.9,182.3 	"/>
	<path fill="#FCC200" d="M108.9,157.7c0,0,0.4,6-2.3,10.6c-2.8,4.6-6.5,8-8.9,8c-3.7,0.1-5.6-2.1-8.4,3.3c2.4-2.2,5-2.5,7.5-0.8
		c-3.9,0.2-5.8,2.1-5.8,5.7c2-3,4.9-4.1,8.7-3.5c3.3,0.9,4.4,1,5.2,4.6c1.7-1.5,1.2-3.7-1.3-6.4c0.9-4,3.3-3.8,7.1,0.6
		c0,0-3.5-5.5-0.4-9c3-3.4,9.5-6.7,9.5-6.7l2-1L108.9,157.7z"/>
	<path fill="#1D1D1B" d="M108.5,157.7L108.5,157.7c0,0.1,0.4,6-2.3,10.4c-2.6,4.4-6.2,7.8-8.5,7.8c-0.8,0.1-1.7,0-2.4-0.1
		c-2.4-0.3-4.2-0.6-6.5,3.7l0.7,0.5c2.4-2.1,4.6-2.4,7-0.8l0.2-0.8c-4.2,0.3-6.2,2.3-6.1,6.2v1.4l0.8-1.1c1.9-2.9,4.6-4,8.2-3.3
		c-0.1,0,0.5,0.2,0.5,0.2c2.9,0.6,3.7,0.9,4.4,4.1l0.1,0.7l0.5-0.5c1.9-1.8,1.5-4.2-1.3-7.1l0.1,0.4c0.4-1.4,0.9-2.3,1.5-2.4
		c0.7-0.2,2.3,0.2,4.8,3.2l0.6-0.5c-0.1-0.1-3.2-5.2-0.5-8.4c2.9-3.4,9.3-6.5,9.4-6.5l2-1l0.8-0.4l-0.8-0.4l-12.9-5.5l-0.6-0.3
		L108.5,157.7z M121.5,162.8l-2,1c-0.3,0.2-6.6,3.3-9.6,6.8c-3.2,3.6,0.3,9.2,0.4,9.4l0.6-0.5c-2.3-2.7-4.2-3.8-5.5-3.5
		c-1.1,0.2-1.8,1.3-2.3,3.1v0.2l0.1,0.2c3.6,3.8,1.9,5.4,1.3,6l0.8,0.2c-0.8-3.7-2-4.1-5-4.8l-0.5-0.1c-4-0.7-7,0.5-9.1,3.7l0.7,0.2
		c0-3.3,1.7-5.1,5.4-5.3l1.3-0.1l-1-0.6c-2.7-1.8-5.4-1.5-8,0.8l0.6,0.6c2-3.8,3.3-3.6,5.6-3.3c0.8,0.1,1.6,0.2,2.6,0.2
		c2.6-0.1,6.3-3.5,9.1-8.3c2.8-4.7,2.4-10.7,2.4-10.9l-0.6,0.4l12.8,5.6L121.5,162.8z"/>
	<path fill="#1D2362" d="M114.1,131.3c0,0,8-2.2,11,0.8c5.9-20.1-4.4-25.1-5-26c-0.7-2.4-4.3-13.6,10.4-26.7
		c14.7-13.2,22.7-21.4,31.7-30.3c16-15.7,28-45.7,28.8-47.5c6.8,16.2,0.6,31.2-24.8,64.4c13.9-13.7,23.7-27.8,29.2-42.3
		c1.1,15.7-5.7,31.2-20.5,46.6c0,0,10.5-9.5,15.2-16.8c4.8-7.2,8.4-15.1,8.4-15.1c2.5,12.8-6.6,29.4-27.2,49.9
		c12.8-10.2,22.6-20.4,29.8-30.5c-0.8,12.4-10.5,26.4-29.2,42.1c0,0,8.2-4.5,15-11.5c6.8-7.1,11.1-12.8,11.1-12.8
		c-3.3,15.4-13.3,28-30,37.9l8.6-3.5c-1.2,5.2-4.2,9.4-9.1,12.7l6.4-0.5c-2.1,4.4-5.2,7.7-9.5,10.1l6.6-1.1c-1.6,4-4.9,6.8-10,8.3
		l5.5,0.5c-2.7,4.2-6.8,6.6-12.1,7.1l4.4,2.6c-2.4,2.2-6,3.9-10.9,5c0,0,10.4,9.8,23.1,9.9c12.7,0.2,15.5-0.3,14.9,2.6
		c-0.7,2.9-10.3,8.6-10.3,8.6l5.5,0.3c-2.9,4.7-7.6,6.9-14.1,6.6l4.9,1.7c-2.7,2.7-7.3,4.1-12.4,3.9l1.2,2.9
		c-4.5,2-8.8,2.8-12.9,2.2l4.6,3.6c-10,0.8-17.9-0.7-23.5-4.4l0.6,1.7c-18.6-6.1-9.9-12.8-10.4-29.9c-5.4-1.7-10.1-5-13.8-9.9
		l-10.5,1.1l3.3-3.8c-3.7,1.7-8,2.1-12.9,0.8l4.2-3.6c-5.3,1.2-10.1,0.6-14.6-1.7l3.6-3c-5.3,0.9-8.2-1.3-11.1-4.2l4.3-2.6
		c-4.7-0.4-8.3-2.4-11-6.2l6.5,0.6c-4.6-1.8-7.9-5.2-10.1-10.3l6.2,0.3c-4.3-2.4-7.6-6.7-9.7-12.9c2.4,1.1,5,1.6,7.8,1.2
		c-7.8-5.1-13.6-12.3-17.3-21.6c4,3.6,9.5,7.3,16.6,11.4c-13.1-12.5-22-23.5-22.5-38c5.1,8.7,13.5,17,25.2,24.8
		C39.8,64.8,29.6,46,32.7,30.6c2.5,8.6,6.5,16.3,12.1,22.8C36.4,34,34,27.8,37.8,20.2l17.8,31C39.3,21.9,38.2,4.7,51.1,0.6
		c0,0-3.8,10,14.1,33.2C83.1,57.1,88.6,71,89.4,75.1c0.7,4,2.6,12.5-2.4,19.7c-5.1,7.2-5.3,15.7,5.6,22.9
		C103.4,124.9,114.1,131.3,114.1,131.3"/>
	<path fill="#1D1D1B" d="M114.2,131.7L114.2,131.7c0.1,0,7.8-2.1,10.6,0.7l0.5,0.5l0.2-0.7c2.2-7.7,2.4-14.1,0.5-19.1
		c-1.5-4-4-5.9-5.1-6.9c-0.2-0.1-0.4-0.3-0.5-0.4l0.1,0.1l-0.1-0.4c-2.4-8.9,1.1-17.6,10.3-25.9c11.6-10.3,19-17.6,26.1-24.7
		l5.6-5.6c13.7-13.5,24.7-37.4,28.7-47.1l0.2-0.6h-0.7c6.7,15.9,1.2,30.3-24.8,64l0.6,0.5c13.8-13.7,23.7-28,29.4-42.4l-0.9-0.1
		c1.1,15.4-5.7,30.9-20.3,46.2l0.6,0.6c0.1-0.1,10.6-9.6,15.4-16.9c4.6-7.1,8.3-15.1,8.3-15.1l-0.7-0.1c2.4,12.6-6.7,29.2-27.2,49.5
		l0.6,0.7c12.7-10.2,22.8-20.5,29.9-30.7l-0.8-0.2c-0.7,12.2-10.5,26.2-29,41.7l0.5,0.7c0.1,0,8.4-4.5,15.1-11.6
		c6.6-7,11-12.8,11.1-12.9l-0.8-0.3c-3.2,15.2-13.3,28-29.8,37.7l0.3,0.8l8.7-3.5l-0.6-0.5c-1.2,5-4.2,9.2-8.9,12.4l-1.2,0.9
		l1.5-0.2l6.5-0.4l-0.5-0.6c-2,4.2-5.2,7.6-9.3,9.9l0.3,0.8l6.6-1.1l-0.4-0.6c-1.6,3.9-4.9,6.6-9.7,8.1l0.1,0.9l5.5,0.5l-0.3-0.7
		c-2.5,4.1-6.6,6.3-11.8,6.8l-1.3,0.1l1.2,0.7l4.3,2.6l-0.1-0.7c-2.3,2.2-5.9,3.9-10.6,5l-0.8,0.1l0.6,0.6
		c0.1,0.1,10.7,9.9,23.4,10.1h4.6c6,0,9.1,0,9.8,0.9c0.2,0.1,0.2,0.4,0.1,1.1c-0.6,2.2-7.5,6.8-10,8.4l-1.3,0.7l1.4,0.1l5.5,0.2
		l-0.3-0.6c-2.8,4.6-7.4,6.7-13.8,6.4l-0.1,0.8l4.8,1.6l-0.1-0.6c-2.6,2.5-7.1,3.9-12.1,3.8h-0.6l0.3,0.6l1.1,2.9l0.2-0.5
		c-4.3,2-8.6,2.7-12.6,2.1l-1.6-0.2l1.3,1l4.6,3.6l0.2-0.7c-9.9,0.7-17.7-0.7-23.2-4.4l-1-0.7l0.4,1.1l0.6,1.7l0.5-0.6
		c-13-4.3-12.3-8.5-11.1-17.3c0.6-3.4,1.2-7.3,1.1-12.2v-0.2l-0.4-0.2c-5.3-1.7-9.9-5-13.6-9.7l-0.2-0.2h-0.2L95,155l0.4,0.6
		l3.3-3.9l-0.5-0.7c-3.6,1.7-7.8,2.1-12.5,0.9l0.1,0.7L90,149l-0.4-0.7c-5.1,1.2-9.9,0.6-14.3-1.7l0.1,0.7l3.6-3l1.2-1l-1.5,0.2
		c-5.1,0.8-7.8-1.2-10.7-4l-0.1,0.6l4.3-2.6l1.2-0.7l-1.4-0.1c-4.6-0.4-8.2-2.4-10.7-5.9l-0.4,0.6l6.5,0.6l0.2-0.8
		c-4.5-1.7-7.8-5.1-9.8-10l-0.4,0.6l6.2,0.3l0.2-0.8c-4.2-2.3-7.4-6.6-9.4-12.6l-0.6,0.5c2.4,1.2,5.1,1.7,8,1.3l1.1-0.1l-0.9-0.7
		c-7.7-5-13.6-12.3-17.2-21.4l-0.7,0.5c4,3.5,9.6,7.4,16.8,11.4l0.5-0.7C48,86.6,39.6,75.9,39,61.9l-0.7,0.2
		c5.1,8.7,13.6,17.1,25.4,25l0.4-0.7C40.9,64.5,30.7,45.8,33.6,30.6h-0.7C35.4,39.2,39.5,47,45,53.7l0.7-0.5
		c-8.4-19.4-10.7-25.4-7-32.9h-0.8l17.9,31l0.7-0.4C45,30.8,40.7,15.9,44,7.6C45.3,4.3,47.8,2,51.4,1l-0.5-0.6
		C50.7,0.8,47.3,10.9,65.1,34c17.3,22.5,23.3,36.7,24.2,41l0.1,0.8c0.8,4.2,2.2,12-2.5,18.7c-2.8,4.1-3.9,8.1-3.1,12
		c0.8,4.2,3.8,8.1,8.9,11.5c10.8,7.2,21.5,13.5,21.5,13.5l0.2,0.2L114.2,131.7z M92.8,117.3c-4.9-3.2-7.8-6.9-8.6-11
		c-0.6-3.6,0.3-7.4,3.1-11.3c4.9-7,3.4-15.1,2.6-19.4l-0.1-0.7C89,70.4,82.9,56,65.5,33.5C48.1,10.9,51.4,0.8,51.4,0.8L51.7,0
		l-0.8,0.3c-3.9,1.2-6.6,3.6-8,7.2c-3.4,8.6,0.9,23.4,12.6,43.9l0.7-0.4L38.4,19.9l-0.3-0.6l-0.4,0.6c-3.9,7.8-1.3,14.3,7.1,33.7
		l0.6-0.5c-5.4-6.5-9.5-14.2-12.1-22.7h-0.7C29.4,45.9,39.7,64.9,63.2,87l0.5-0.6c-11.6-7.8-20-16.2-25-24.7l-0.8,0.2
		c0.5,14.3,9.1,25.3,22.6,38.3l0.5-0.7c-7.1-4-12.6-7.8-16.6-11.3l-0.7,0.4c3.8,9.3,9.7,16.6,17.5,21.8l0.2-0.8
		c-2.7,0.3-5.3-0.1-7.5-1.1l-0.8-0.4l0.3,0.9c2.1,6.2,5.4,10.6,9.9,13.1l0.2-0.7l-6.2-0.3h-0.6l0.2,0.6c2.1,5.1,5.6,8.7,10.4,10.4
		l0.2-0.8l-6.5-0.5l-0.9-0.1l0.6,0.7c2.7,3.8,6.5,6,11.3,6.3l-0.2-0.8l-4.3,2.6l-0.5,0.3l0.5,0.3c3.1,3,6,5.2,11.5,4.3l-0.3-0.7
		l-3.6,3l-0.5,0.4l0.6,0.3c4.5,2.5,9.5,3,14.8,1.7l-0.3-0.7l-4.1,3.6l-0.6,0.5l0.8,0.2c4.9,1.3,9.3,1,13.2-0.9l-0.6-0.7l-3.3,3.9
		l-0.7,0.9l1.1-0.1l10.5-1.1l-0.4-0.2c3.8,4.9,8.5,8.3,14.1,10.1l-0.3-0.4c0.1,4.7-0.4,8.7-1,12.1c-1.4,8.6-2.1,13.7,11.6,18.2
		l0.8,0.2l-0.2-0.8l-0.6-1.8l-0.6,0.5c5.6,3.8,13.6,5.4,23.7,4.5l1-0.1l-0.8-0.6l-4.6-3.6l-0.3,0.8c4.2,0.6,8.6-0.1,13.1-2.3
		l0.3-0.1l-0.1-0.4l-1.2-2.9l-0.4,0.6c5.3,0.2,9.9-1.3,12.7-4.1l0.5-0.4l-0.7-0.2l-4.8-1.6l-0.2,0.8c6.7,0.3,11.5-1.9,14.5-6.9
		l0.3-0.5l-0.7-0.1l-5.5-0.2l0.2,0.7c1-0.6,9.7-5.9,10.4-8.8c0.2-0.5,0.3-1.3-0.2-1.9c-0.9-1.2-3.5-1.2-10.4-1.3h-4.6
		c-12.3-0.1-22.7-9.7-22.8-9.8l-0.2,0.7c4.9-1.1,8.7-2.9,11.1-5.1l0.4-0.4l-0.4-0.4l-4.4-2.6l-0.1,0.8c5.5-0.5,9.6-2.9,12.4-7.3
		l0.4-0.6l-0.7-0.1l-5.5-0.4l0.1,0.8c5.1-1.6,8.5-4.5,10.2-8.6l0.3-0.7l-0.8,0.2l-6.7,1l0.3,0.8c4.3-2.4,7.6-5.9,9.7-10.3l0.3-0.6
		h-0.7l-6.4,0.4l0.3,0.8c4.8-3.4,8-7.8,9.2-13l0.2-0.8l-0.8,0.3l-8.6,3.5l0.4,0.8c16.7-9.9,26.8-22.7,30.1-38.2l-0.8-0.4
		c0,0-4.4,5.9-11.1,12.8c-6.6,6.9-14.7,11.4-14.9,11.5l0.5,0.7c18.7-15.7,28.6-30,29.3-42.4l0.1-1.5l-0.7,1.3
		c-7.2,10.1-17.2,20.3-29.8,30.4l0.6,0.6c20.7-20.5,29.9-37.4,27.4-50.3l-0.3-1.3l-0.5,1.2c0,0.1-3.7,7.9-8.4,15.1
		c-4.7,7.1-15.1,16.5-15.1,16.7l0,0l0.6,0.6c14.7-15.4,21.6-31.2,20.6-46.9l-0.9-0.1c-5.6,14.4-15.4,28.5-29.1,42.1l0.6,0.5
		c13.5-17.7,20.9-29.1,24.6-38.6c3.8-9.6,3.8-17.7,0.2-26.2l-0.4-0.9L191,1l-0.3,0.6c-4.1,9.6-14.9,33.5-28.6,46.8l-5.6,5.5
		c-7.1,7.1-14.5,14.4-26.1,24.7c-9.4,8.5-13.1,17.4-10.6,26.8l0.1,0.3h0.1v0.1c0.1,0.2,0.3,0.3,0.6,0.6c1.1,0.9,3.5,2.7,4.9,6.6
		c1.7,4.8,1.6,11.1-0.6,18.5l0.7-0.2c-3.1-3-11.1-1-11.5-0.8h0.3C114.2,130.9,103.5,124.5,92.8,117.3"/>
	<path fill="#FCC200" d="M84.8,127c0,0,1.5-10.3,10.3-11.4c8-0.9,27.5,15.9,33.1,16.8l-4.9,0.3l2.2,5.8c-1.4-2.2-3.1-3.4-5.2-3.5
		l3,4.7l-4.1-2l3.1,7l-6.6-3.3l1.8,6.2l-5.1-3.3l1.2,6.5l-6.3-4.6l2,7.7l-3.6-2.9l0.1,5.3c0,0-3.6-5.3-4.2-11.2
		c-0.8-6-2.7-13.1-5.6-10.2c-2.5,2.5-3.5,3.8-8.6,3.7l7.2-7.5c-5.9-0.2-10.3,2.9-13.1,9.3c-4.2-5.1-3.8-8.8,1.2-10.9
		C82.2,127.4,83,126.5,84.8,127"/>
	<path fill="#1D1D1B" d="M85.2,127L85.2,127c0-0.1,1.5-10,9.8-11c4.7-0.5,13.9,5.4,21.1,10.2c5.1,3.4,9.6,6.2,11.9,6.6l0.1-0.8
		l-4.9,0.3h-0.6l0.2,0.5l2.1,5.8l0.8-0.3c-1.5-2.4-3.4-3.5-5.5-3.7l-0.8-0.1l0.4,0.7l3.1,4.8l0.6-0.6l-4-2l-1-0.5l0.4,1l3.1,7
		l0.6-0.6L116,141l-0.8-0.5l0.3,1l1.6,6.2l0.6-0.5l-5-3.3l-0.8-0.5l0.1,1l1.2,6.4l0.7-0.4l-6.3-4.6l-0.9-0.7l0.2,1.2l2.1,7.7
		l0.6-0.5l-3.6-2.9l-0.7-0.6v0.9l0.1,5.3l0.8-0.2c-0.1-0.1-3.5-5.3-4.2-11.1c-0.4-3-1.5-10.2-4.1-11.1c-0.7-0.2-1.4,0-2.2,0.7
		l-0.2,0.3c-2.2,2.3-3.3,3.4-8.1,3.3l0.3,0.7l7.2-7.4l0.6-0.7h-0.9c-6-0.3-10.6,3-13.5,9.5l0.7-0.1c-2.2-2.7-3.1-5-2.7-6.7
		c0.4-1.4,1.6-2.7,3.8-3.5l0.3-0.1l-0.1-0.3c-0.2-1.1-0.2-1.8,0.2-2.1c0.2-0.3,0.8-0.2,1.3-0.1l0.4,0.1L85.2,127z M82.6,129.2
		c-2.5,1-3.8,2.3-4.2,4.1c-0.5,2,0.4,4.6,2.8,7.5l0.4,0.5l0.3-0.6c2.8-6.3,7-9.3,12.7-9.1l-0.3-0.7l-7.2,7.4l-0.6,0.7h0.9
		c5.1,0.1,6.4-1.3,8.6-3.6l0.3-0.2c0.7-0.7,1.1-0.6,1.3-0.5c1.3,0.5,2.8,4.6,3.5,10.4c0.7,5.9,4.2,11.2,4.4,11.5l0.8,1.2v-1.5
		l-0.2-5.3l-0.7,0.3l3.6,2.9l1,0.8l-0.3-1.3l-2-7.6l-0.7,0.4l6.2,4.6l0.9,0.6l-0.2-1.1l-1.2-6.4l-0.7,0.4l5.1,3.4l0.9,0.6l-0.2-1.1
		l-1.8-6.1l-0.6,0.5l6.6,3.3l1,0.5l-0.4-1.1l-3.1-6.9l-0.6,0.5l4.1,2l1.3,0.7l-0.8-1.3l-3-4.7l-0.3,0.5c2,0.2,3.5,1.2,4.9,3.3
		l0.7-0.4l-2.2-5.8l-0.4,0.5l4.9-0.2V132c-2.1-0.4-6.8-3.3-11.6-6.5c-7.8-5.1-16.7-10.9-21.7-10.3c-9,1.1-10.6,11.6-10.7,11.7
		l0.6-0.4c-1-0.2-1.7-0.1-2.2,0.3c-0.6,0.5-0.6,1.4-0.3,2.8L82.6,129.2z"/>
	<path fill="#FFFFFF" d="M91.4,128c-5.4,0.7-4.7-5,1.5-5.4C87.7,125.3,89.1,126.7,91.4,128"/>
	<path fill="#1D1D1B" d="M91.4,127.8c-1.4,0.3-2.6-0.1-3.1-0.8c-0.3-0.5-0.4-1.1-0.1-1.7c0.5-1.1,2-2.3,4.7-2.5l-0.1-0.4
		c-2.4,1.3-3.6,2.3-3.6,3.4c0,0.9,1.1,1.7,2.2,2.3V127.8z M92.9,122.3c-2.9,0.2-4.5,1.5-5.1,2.7c-0.4,0.8-0.2,1.6,0.2,2.2
		c0.3,0.5,1.3,1.3,3.6,0.9h0.7l-0.6-0.3c-1-0.6-1.9-1.3-1.9-2c0-0.8,1.1-1.9,3.3-3L92.9,122.3z"/>
	<path fill="#FFFFFF" d="M141,194.2c-9.4-4.7-13.6-8.4-13-14c-0.9-0.3-2-0.3-3.3,0C124.8,188.8,130.1,193.5,141,194.2"/>
	<path fill="#1D1D1B" d="M141.2,193.8c-10-4.9-13.3-8.4-12.7-13.6v-0.3l-0.4-0.1c-1-0.4-2.1-0.4-3.5,0h-0.3v0.3
		c0.1,8.9,5.7,13.8,16.6,14.5L141.2,193.8z M124.8,180.6c1.3-0.3,2.2-0.3,3.1,0l-0.3-0.5c-0.7,6.3,4.5,10.2,13.2,14.4l0.2-0.8
		c-10.5-0.7-15.7-5.2-15.8-13.6L124.8,180.6z"/>
	<path fill="#FFFFFF" d="M130.6,180.1c2.5,6.4,6.4,10.1,12.1,12.3c-1.3-5.4-4-9-7.1-12.4C133.2,179.4,132.3,179.4,130.6,180.1"/>
	<path fill="#1D1D1B" d="M130.2,180.2c2.5,6.4,6.3,10.3,12.4,12.5l0.7,0.3l-0.2-0.8c-1.2-5.2-3.7-8.7-7.1-12.5l-0.1-0.1h-0.1
		c-2.5-0.6-3.5-0.6-5.3,0.1l-0.4,0.2L130.2,180.2z M135.3,180.2c3.4,3.7,5.8,7.2,7,12.2l0.6-0.5c-5.9-2.2-9.6-5.9-11.9-12l-0.3,0.5
		c1.7-0.6,2.5-0.6,4.9-0.1L135.3,180.2z"/>
	<path fill="#FFFFFF" d="M143.7,176.4c0.4-1,1.4-1.5,2.6-2c5.9,5.2,12.1,8.3,19.3,10.1c-1,2.1-5,2.4-8.2,1.1
		C150.6,182.5,146,178.6,143.7,176.4"/>
	<path fill="#1D1D1B" d="M144.1,176.6c0.4-0.9,1.2-1.3,2.4-1.8l-0.4-0.1c5.8,5.2,11.9,8.4,19.5,10.2l-0.3-0.6
		c-0.8,1.7-4.5,2.1-7.7,0.9c-7.3-3.2-11.9-7.4-13.6-9.1L144.1,176.6z M157.3,185.9c3.3,1.3,7.6,1.1,8.7-1.3l0.2-0.5l-0.4-0.1
		c-7.3-1.7-13.4-4.9-19.1-9.9l-0.2-0.2l-0.2,0.1c-1.3,0.4-2.3,0.9-3,2.2l-0.1,0.2l0.2,0.3C145.1,178.4,149.8,182.6,157.3,185.9"/>
	<path fill="#FFFFFF" d="M148.7,173c0.1-0.9,0.6-1.6,1.7-2.1c8.2,3.1,16,5.3,23.7,6.6c-0.9,1.8-2.8,2.9-5.8,3.2
		C163.6,180.5,157.1,178,148.7,173"/>
	<path fill="#1D1D1B" d="M149,173.1c0.1-0.8,0.5-1.4,1.5-1.8h-0.3c8.1,3.1,16.1,5.3,23.7,6.6l-0.2-0.6c-0.9,1.7-2.6,2.7-5.5,2.9h0.1
		c-4.5-0.1-11.1-2.7-19.4-7.5L149,173.1z M168.3,181.1c3-0.2,5.1-1.4,6.1-3.4l0.3-0.5l-0.6-0.1c-7.5-1.4-15.5-3.6-23.6-6.6l-0.2-0.1
		l-0.1,0.1c-1.3,0.5-2,1.4-2,2.5v0.3l0.2,0.2C156.9,178.3,163.5,180.9,168.3,181.1L168.3,181.1L168.3,181.1z"/>
	<path fill="#FFFFFF" d="M152,168.7c0.3-1.1,1.1-1.9,2.6-2.7c7.1,1.5,15.9,2,26.2,1.8c-0.4,2.4-2.1,4.2-5.2,5.3
		C167,173,159.2,171.6,152,168.7"/>
	<path fill="#1D1D1B" d="M152.3,168.8c0.2-1,1-1.8,2.4-2.5h-0.2c7.1,1.4,16,2,26.3,1.8l-0.4-0.6c-0.4,2.3-2,4-4.9,5h0.2
		c-8.5-0.1-16.3-1.6-23.5-4.3L152.3,168.8z M175.7,173.5c3.1-1.2,5-3.1,5.4-5.7l0.1-0.5h-0.6c-10.2,0.2-19.1-0.4-26.1-1.7h-0.1h-0.2
		c-1.6,0.8-2.4,1.9-2.8,3.1l-0.1,0.3l0.4,0.1c7.2,2.8,15.2,4.3,23.8,4.4L175.7,173.5L175.7,173.5z"/>
	<path fill="#FFFFFF" d="M137.8,179.2c0.9-1.1,2.4-1.5,3.6-1.5l15.4,12.6c0,0-5.4,2.3-9.2,0.6C145.5,190,139.6,180.1,137.8,179.2"/>
	<path fill="#1D1D1B" d="M138.2,179.5c1-1.2,2.7-1.3,3.2-1.3l-0.3-0.1l15.4,12.6l0.1-0.7c-0.1,0-5.3,2.2-8.8,0.6c-1-0.5-3.1-3.5-5-6
		c-2.3-3.2-3.8-5.2-4.7-5.6L138.2,179.5z M147.4,191.3c3.9,1.8,9.2-0.5,9.5-0.6l0.6-0.2L157,190l-15.4-12.6l-0.1-0.1h-0.2
		c-0.7,0-2.7,0.2-3.9,1.6l-0.2,0.5l0.5,0.3c0.7,0.3,2.7,3,4.4,5.4C144.2,188,146.2,190.7,147.4,191.3"/>
	<path fill="#FCC200" d="M119.4,167.5l0.6,3.2l3-4.1l-0.7,4.6l3-3.7l-0.6,4.1l3.5-3.1l-1.3,3.7l4.3-1.6c0,0-6.1,3.2-8.5,6.9
		c-3.2,4.9,1.5,7.2,1.5,7.2c-2.4,2.8-3.3-3.1-5.9-1.7l-2.7,3.4c2.2,1.6,2.9,4.3,2,8.1c0.1-3.1-1-4.9-3.3-5.4
		c-2.2,1.1-3.2,2.6-3.1,4.9c-1.7-1.6-1.7-3.8,0.1-6.6c-4.2-0.1-6.7,1.3-7.8,4.2c-1.4-3.7,1.7-6,8.8-7.8
		C117.8,179.1,118.6,174.8,119.4,167.5"/>
	<path fill="#1D1D1B" d="M119,167.6l0.5,3.2l0.3,1l0.6-0.9l3-4.1l-0.8-0.4l-0.7,4.7l-0.3,1.5l1-1.2l3-3.8l-0.7-0.3l-0.6,4l-0.1,1.2
		l0.8-0.7l3.5-3.1l-0.6-0.5l-1.4,3.6l-0.2,0.8l0.8-0.3l4.3-1.6l-0.3-0.7c-0.2,0.2-6.2,3.3-8.7,7c-1,1.7-1.4,3.3-1,4.7
		c0.6,2.1,2.6,3.1,2.7,3.1l-0.1-0.6c-0.4,0.3-0.7,0.6-0.9,0.6c-0.5,0-1-0.6-1.5-1.2c-0.8-1-1.9-2.1-3.4-1.3h-0.1v0.1l-2.7,3.3
		l-0.3,0.3l0.4,0.3c2.1,1.5,2.7,4,1.8,7.6l0.8,0.1c0.1-3.3-1-5.2-3.6-5.9h-0.3h-0.1c-2.4,1.1-3.4,3-3.3,5.3l0.7-0.3
		c-1.5-1.5-1.4-3.4,0.3-5.9l0.3-0.7h-0.7c-4.4-0.2-7.2,1.3-8.3,4.4h0.8c-0.5-1.1-0.5-2,0-2.9c0.9-1.8,3.7-3.2,8.5-4.4h0.1l0,0
		c5.7-4.7,6.5-9.3,7.2-16.3H119V167.6z M112.2,183.1c-5.1,1.4-8,2.9-9,4.8c-0.5,1.1-0.5,2.2-0.1,3.5l0.4,1l0.4-1
		c1-2.8,3.3-4,7.4-3.9l-0.3-0.6c-1.9,2.9-1.9,5.2-0.1,7l0.8,0.7l-0.1-1c-0.2-2.1,0.8-3.5,2.7-4.5h-0.2c2,0.4,3.1,2.1,2.9,5l0.8,0.1
		c1.1-4,0.3-6.8-2.2-8.5l0.1,0.6l2.8-3.3l-0.1,0.1c0.9-0.5,1.5,0.1,2.3,1.2c0.6,0.7,1.3,1.3,2.1,1.3c0.6,0.1,1.1-0.2,1.5-0.8
		l0.3-0.4l-0.4-0.3c0,0-1.7-0.9-2.2-2.6c-0.3-1.2,0-2.5,0.9-4c2.3-3.6,8.3-6.7,8.4-6.8l-0.1,0.1l-0.3-0.8l-4.3,1.6l0.6,0.5l1.3-3.6
		l-0.7-0.5l-3.5,3.1l0.7,0.4l0.5-4.1l0.3-1.5l-1,1.2l-3.1,3.7l0.8,0.3l0.7-4.6l-0.8-0.3l-3.1,4.2l0.8,0.2l-0.6-3.2h-0.8
		c-0.7,6.8-1.5,11.3-6.9,15.7L112.2,183.1z"/>
	<path fill="#FFFFFF" d="M150.2,92.5c0,0-3.7,5.2-2.7,7.3c0.9,2.1,2.6,6.4,0.6,14.4s-4,10.6-4.4,12.8s-3.4,15-3.4,15
		s5.4-8.2,5.4-10.9s-0.4-2,1-5.9c1.4-3.8,6.2-8.9,5.4-15s-2.6-10-2.4-12.9C149.9,94.5,150.2,92.5,150.2,92.5"/>
	<path fill="#1D1D1B" d="M149.8,92.2c-0.3,0.5-3.8,5.5-2.7,7.7c1.1,2.6,2.4,6.7,0.6,14.2c-1.2,4.8-2.4,7.6-3.3,9.6
		c-0.6,1.4-1.1,2.3-1.1,3.3c-0.3,2.2-3.4,14.9-3.4,15l0.8,0.3c0.3-0.3,5.5-8.3,5.5-11.2c0-0.6,0-1,0-1.3c0-1.3-0.1-1.5,1-4.4
		c0.5-1.1,1.2-2.4,1.9-3.7c1.8-3.2,4.1-7.2,3.6-11.7c-0.4-2.8-1-5.2-1.5-7.3c-0.5-2.3-1-4-0.9-5.4c0.1-2.9,0.3-4.9,0.3-4.9l0.2-1.6
		L149.8,92.2z M149.5,97.3c-0.1,1.6,0.3,3.4,0.9,5.7c0.5,2.1,1.1,4.3,1.6,7.2c0.4,4.1-1.6,7.8-3.5,11c-0.8,1.4-1.5,2.6-2,3.8
		c-1.1,3-1.1,3.3-1.1,4.7v1.3c0,2.2-3.8,8.5-5.4,10.8l0.8,0.3c0.1-0.6,3-12.9,3.3-15.1c0.2-0.8,0.5-1.8,1.1-3c0.8-2,2.1-4.9,3.2-9.7
		c2-7.8,0.5-12.1-0.6-14.7c-0.7-1.5,1.6-5.5,2.7-6.9l-0.8-0.3C149.7,92.4,149.6,94.5,149.5,97.3"/>
	<path fill="#FFFFFF" d="M86.8,21.7c0.5-0.5,0.5-1.3,0.1-2.3c-0.2-0.8-0.5-1.4-0.9-1.8c-0.4-0.4-1-0.5-1.8-0.2
		c-0.3,0.1-0.5,0.2-0.6,0.4c-0.2,0.1-0.2,0.3-0.1,0.5l1.5,4.5C86,22.3,86.6,22.1,86.8,21.7 M82.5,29.1c0.5-0.2,0.9-0.4,1.1-0.7
		c0.1-0.3,0-0.7-0.2-1.3l-2.3-7.3c-0.3-0.6-0.5-0.9-0.8-1.1c-0.2-0.1-0.5-0.1-1.2,0L79,18.3l5.3-1.7c1.5-0.5,2.6-0.6,3.5-0.4
		c0.9,0.2,1.5,0.9,1.9,2.1c0.2,0.5,0.2,1,0,1.7c-0.2,0.6-0.5,1-1,1.5c-0.5,0.4-0.9,0.7-1.4,0.9c-0.5,0.2-1.2,0.5-2.2,0.8l1,3
		c0.2,0.7,0.4,1.1,0.7,1.1c0.3,0.1,0.7,0.1,1.3,0l0.1,0.3l-5.5,1.8L82.5,29.1z"/>
	<path fill="#FFFFFF" d="M96,25.7v-0.4c0.5-0.1,0.7-0.2,1-0.4c0.3-0.2,0.3-0.6,0.3-1.1L96,15.5c-0.1-0.5-0.3-0.8-0.7-1
		c-0.3,0-0.6-0.1-1.2,0v-0.4l10-1.6l0.5,3.5l-0.4,0.1c-0.4-1-0.9-1.8-1.5-2.1c-0.5-0.3-1.5-0.3-2.9-0.1c-0.5,0-0.9,0.1-1,0.2
		c-0.1,0.1-0.1,0.4-0.1,0.7l0.6,4c1-0.1,1.6-0.4,1.9-0.9c0.4-0.4,0.5-1.1,0.5-2.1h0.4l1,5.8h-0.4c-0.4-1-0.7-1.5-1.1-1.9
		c-0.5-0.3-1.2-0.4-2.2-0.3l0.7,4.2c0,0.3,0.2,0.6,0.4,0.7s0.6,0.1,1.3,0c1-0.2,1.9-0.5,2.5-1.1c0.6-0.5,1.1-1.4,1.5-2.6l0.4-0.2
		l-0.1,3.7L96,25.7z"/>
	<path fill="#FFFFFF" d="M110.6,23.2c0.5-0.1,0.8-0.1,1.1-0.2c0.3-0.2,0.4-0.6,0.4-1.1v-8.4c0-0.6-0.1-0.9-0.4-1.1
		c-0.2-0.1-0.6-0.1-1.1-0.2v-0.5h6.1v0.5c-0.7,0-1.2,0.1-1.4,0.3c-0.2,0.1-0.3,0.5-0.3,1.3V22c0,0.3,0.1,0.6,0.3,0.8
		c0.2,0.1,0.6,0.2,1.2,0.2c1,0,1.9-0.3,2.7-0.7c0.7-0.5,1.3-1.4,1.8-2.7h0.5l-0.7,4h-10.1v-0.4H110.6z"/>
	<path fill="#FFFFFF" d="M125.3,23.6c0.5,0.1,0.8,0.1,1.1-0.1c0.4-0.1,0.6-0.4,0.7-0.9l1-8.4c0.1-0.5,0-0.9-0.3-1.1
		c-0.2-0.2-0.5-0.3-1-0.4v-0.3l6.1,0.7v0.5c-0.5-0.1-0.9,0-1.2,0c-0.4,0.1-0.5,0.4-0.6,0.9l-1.1,8.4c0,0.5,0,0.8,0.3,1
		s0.7,0.4,1.2,0.5l-0.1,0.5l-6-0.8L125.3,23.6L125.3,23.6z"/>
	<path fill="#FFFFFF" d="M138.6,14.1l10.1,2.9l-1,3.4l-0.5-0.1c0.3-1.3-0.1-2.2-0.7-2.9c-0.3-0.3-0.8-0.6-1.7-0.9l-2.5,8.8
		c-0.2,0.7-0.2,1-0.1,1.3c0.2,0.3,0.6,0.5,1.3,0.7l-0.1,0.4l-5.9-1.7l0.2-0.4c0.6,0.2,1.1,0.2,1.4,0.1c0.3-0.1,0.5-0.5,0.6-1.1
		l2.6-8.8c-0.8-0.3-1.5-0.4-2-0.2c-0.9,0.2-1.6,0.9-2,2l-0.5-0.1L138.6,14.1z"/>
	<path fill="#FFFFFF" d="M155.8,27.8l0.1-4.4l-0.1-0.1l-3.1,3.1L155.8,27.8z M148.3,28.5c0.4,0.1,0.8,0.1,1.2-0.1
		c0.2-0.1,0.7-0.5,1.3-1.1l7.4-7.1l0.4,0.2l-0.2,10c0,1,0,1.8,0.1,2.2c0,0.4,0.3,0.6,0.7,0.8l-0.2,0.4l-5.1-2.3l0.1-0.4
		c0.6,0.2,0.9,0.3,1.2,0.3c0.2,0,0.3-0.2,0.5-0.5c0-0.1,0.1-0.3,0.1-0.6c0-0.2,0-0.4,0-0.6l0.1-1.2l-3.6-1.6c-0.5,0.5-0.8,0.8-1,1
		c-0.3,0.3-0.5,0.7-0.6,0.8c-0.1,0.3,0,0.5,0.2,0.7c0.1,0.1,0.4,0.2,0.7,0.4l-0.2,0.5l-3.2-1.5L148.3,28.5z"/>
	<path fill="#FFFFFF" d="M204.3,75.3c0.2,0.4,0.4,0.8,0.5,0.8c0.2,0.3,0.7,0.3,1.2,0l7.8-3.3c0.4-0.2,0.7-0.5,0.7-0.8
		c0-0.2-0.1-0.6-0.3-1l0.5-0.2l2.3,5.4l-0.4,0.2c-0.2-0.5-0.4-0.8-0.6-0.9c-0.3-0.3-0.6-0.3-1.2-0.1l-3.3,1.4l1.6,3.8l3.3-1.4
		c0.4-0.2,0.7-0.5,0.7-0.9c0.1-0.2,0-0.6-0.2-1.1l0.4-0.2l2.4,5.6l-0.5,0.1c-0.2-0.4-0.4-0.8-0.6-0.9c-0.2-0.2-0.7-0.3-1.1,0
		l-7.8,3.2c-0.4,0.3-0.7,0.5-0.7,0.9c0,0.2,0,0.5,0.2,1l-0.5,0.2l-2.3-5.5l0.4-0.1c0.2,0.4,0.4,0.7,0.6,0.9c0.2,0.2,0.6,0.2,1.1,0.1
		l3.7-1.6l-1.7-3.9l-3.6,1.6c-0.5,0.2-0.7,0.5-0.8,0.9c0,0.3,0.1,0.6,0.2,1l-0.4,0.2l-2.3-5.4L204.3,75.3z"/>
	<path fill="#FFFFFF" d="M215.4,96.7l3.6-2.5l-0.1-0.2l-4.3-0.6L215.4,96.7z M210.4,91.1c0.1,0.5,0.4,0.7,0.8,0.9
		c0.4,0.1,0.8,0.2,1.6,0.3l10.2,1.6l0.1,0.4l-8.1,5.9c-0.9,0.6-1.5,1.1-1.7,1.3c-0.1,0.3-0.3,0.7-0.1,1l-0.4,0.1l-1.3-5.5l0.4-0.1
		c0.2,0.6,0.3,0.9,0.4,1.1c0.1,0.1,0.3,0.2,0.6,0.1c0.1,0,0.3-0.1,0.6-0.3c0.1,0,0.3-0.2,0.5-0.3l1-0.7l-0.9-3.8
		c-0.7-0.1-1.2-0.2-1.4-0.2c-0.5-0.1-0.8-0.1-1,0s-0.4,0.2-0.4,0.6c0,0.2,0,0.5,0,0.9l-0.4,0.2l-0.8-3.5H210.4z"/>
	<path fill="#FFFFFF" d="M213.5,106.8c0.1,0.5,0.2,1,0.4,1.2s0.7,0.3,1.3,0.3l7.7-0.2c0.6-0.1,1.1-0.2,1.3-0.4
		c0.1-0.3,0.1-0.5,0.2-1.2h0.5l0.1,5.6c0.1,1.2-0.1,2.1-0.2,2.9c-0.5,1.4-1.4,2.1-2.6,2.2c-0.9,0.1-1.7-0.3-2.3-1
		c-0.4-0.5-0.7-1-0.8-1.7l-4.8,3.8c-0.2,0.1-0.2,0.2-0.3,0.3s-0.1,0.2-0.1,0.4h-0.4l-0.1-3.6l5.3-3.8v-0.5l-3.4,0.1
		c-0.6,0-1,0.2-1.3,0.4c-0.2,0.2-0.3,0.6-0.3,1.2h-0.5l-0.1-5.9L213.5,106.8z M219.8,113.4c0.4,0.5,1,0.7,2.1,0.7
		c0.6,0,1.2-0.1,1.6-0.3c0.7-0.3,1-0.9,0.9-1.8c0-0.4-0.1-0.7-0.2-0.9c-0.1-0.1-0.3-0.1-0.5-0.1l-4.4,0.1
		C219.3,112.1,219.5,113,219.8,113.4"/>
	<path fill="#FFFFFF" d="M216.9,129.6l4.2-1.4v-0.1l-3.9-1.9L216.9,129.6z M213.8,122.6c0,0.4,0.2,0.8,0.5,1.1
		c0.2,0.1,0.7,0.5,1.4,0.8l9.1,4.8l-0.1,0.5l-9.6,3c-1.1,0.2-1.7,0.5-2,0.7s-0.5,0.5-0.5,0.9h-0.5l0.6-5.6h0.4c0,0.6,0,1,0,1.2
		c0.1,0.2,0.3,0.3,0.6,0.4c0.1,0,0.3,0,0.7-0.1c0.1,0,0.4-0.1,0.6-0.1l1.1-0.3l0.4-3.9c-0.6-0.3-1.1-0.6-1.2-0.6
		c-0.5-0.2-0.7-0.3-1-0.3c-0.2-0.1-0.4,0.1-0.6,0.4c-0.1,0.2-0.1,0.5-0.2,0.9l-0.4-0.1l0.3-3.5L213.8,122.6z"/>
	<path fill="#FFFFFF" d="M215.6,146c0.2,0.6,0.9,1.2,2,1.5c0.7,0.2,1.4,0.3,1.9,0.2c0.6-0.2,0.9-0.6,1.1-1.2
		c0.1-0.4,0.2-0.6,0.1-0.8c-0.1-0.1-0.2-0.3-0.4-0.3l-4.5-1.3C215.5,145,215.4,145.6,215.6,146 M211.7,138.3c-0.1,0.6-0.1,1,0,1.2
		c0.2,0.3,0.5,0.5,1.1,0.7l7.5,2.1c0.5,0.2,1.1,0.2,1.2,0.1c0.2-0.1,0.4-0.4,0.6-1l0.4,0.1l-1.5,5.4c-0.3,1.5-0.9,2.5-1.6,3.1
		c-0.6,0.6-1.6,0.8-2.7,0.4c-0.5-0.1-1-0.4-1.4-0.9c-0.4-0.4-0.7-1-0.7-1.7c0-0.5,0-1.1,0-1.7c0.2-0.5,0.3-1.2,0.6-2.2l-3.1-0.8
		c-0.6-0.2-1.1-0.3-1.3-0.1s-0.5,0.5-0.6,1.1h-0.4l1.6-5.7L211.7,138.3z"/>
	<path fill="#FFFFFF" d="M208.8,157.8l4.4,0.2v-0.2l-3-3.1L208.8,157.8z M208.2,150.3c-0.2,0.4-0.1,0.8,0,1.2
		c0.2,0.2,0.5,0.6,1.1,1.2l7,7.6l-0.2,0.4l-10-0.3c-1.1,0-1.9,0-2.2,0.1c-0.4,0-0.6,0.2-0.8,0.6l-0.4-0.2l2.3-5.1l0.5,0.2
		c-0.2,0.6-0.4,0.9-0.4,1.1c0,0.2,0.2,0.3,0.4,0.4c0.2,0.1,0.4,0.2,0.7,0.2c0.1,0,0.3,0,0.6,0h1.2l1.6-3.6c-0.5-0.5-0.9-0.8-1-1
		c-0.3-0.4-0.5-0.6-0.7-0.6c-0.2-0.1-0.4,0-0.7,0.2c-0.1,0.2-0.3,0.5-0.5,0.8l-0.3-0.2l1.4-3.2L208.2,150.3z"/>
	<path fill="#FFFFFF" d="M201.4,164.7c-0.3,0.6-0.4,1-0.3,1.3c0.1,0.3,0.3,0.5,0.6,0.8l6.9,4.6c0.8-0.2,1.2-0.2,1.4-0.3
		c0.2,0,0.3-0.2,0.5-0.3l0.3,0.2l-2,3.1l-9.4,0.8l-0.1,0.1l4.3,2.9c0.4,0.3,0.8,0.5,1.2,0.5c0.3-0.2,0.7-0.4,1.1-0.9l0.4,0.3
		l-2.2,3.2l-0.3-0.3c0.2-0.5,0.3-0.9,0.3-1.1c-0.1-0.3-0.3-0.5-0.7-0.8l-8.5-5.8l0.3-0.4l12-1.1l0.1-0.2l-5.6-3.8
		c-0.5-0.3-0.8-0.4-1.1-0.4c-0.5,0-0.9,0.3-1.3,0.9l-0.4-0.2l2.2-3.4L201.4,164.7z"/>
	<path fill="#FFFFFF" d="M35.8,189.4l-3.7-4.9l0.2-0.1l0.2,0.2c0.3,0.4,0.5,0.6,0.7,0.7c0.2,0.1,0.4,0.1,0.5,0.1
		c0.2-0.1,0.6-0.3,1.1-0.7l4.6-3.5c0.8-0.6,1.3-1.1,1.5-1.5s0.3-0.7,0.2-1.2c-0.1-0.4-0.2-0.8-0.6-1.3s-0.9-0.9-1.3-1.1
		c-0.6-0.2-1.1-0.2-1.6-0.1c-0.6,0.2-1.3,0.6-2.3,1.3l-3.9,2.9c-0.5,0.3-0.7,0.6-0.8,0.8s-0.1,0.4-0.1,0.6c0,0.3,0.2,0.6,0.5,1
		l-0.2,0.2l-2.5-3.2l0.2-0.2l0.2,0.2c0.2,0.3,0.4,0.4,0.7,0.5c0.2,0.1,0.5,0.1,0.8,0c0.2,0,0.5-0.2,0.9-0.5l3.6-2.7
		c1.1-0.9,1.9-1.4,2.5-1.6c0.6-0.2,1.3-0.2,2.2,0c0.8,0.3,1.6,0.8,2.4,1.9c0.6,0.8,0.9,1.5,1,2.1c0.2,0.9,0.1,1.5-0.1,2.2
		c-0.2,0.5-0.8,1.2-1.6,1.7l-4.6,3.5c-0.5,0.4-0.9,0.6-0.9,0.8c-0.1,0.2-0.1,0.3-0.1,0.6c0,0.2,0.3,0.5,0.5,0.9L35.8,189.4z"/>
	<path fill="#FFFFFF" d="M25.1,174.3l3.6-8.6l-4.4,2.4c-0.7,0.4-1,0.7-1.1,1c-0.1,0.4-0.1,0.9,0.3,1.5l-0.3,0.1l-1.9-3.4l0.3-0.2
		c0.3,0.4,0.5,0.7,0.7,0.8s0.4,0.2,0.6,0.2c0.3,0,0.6-0.2,1.1-0.5l8.6-4.7l0.2,0.3l-4.7,11.7l6.6-3.6c0.6-0.4,1-0.7,1-1.1
		c0.1-0.4,0-0.7-0.1-1.1l-0.2-0.3l0.3-0.1l2,3.6l-0.3,0.2c-0.3-0.5-0.6-0.8-0.9-1c-0.3-0.1-0.8,0-1.4,0.4l-7.3,4l-0.2,0.3
		c-0.2,0.3-0.2,0.7-0.2,0.9s0.1,0.4,0.2,0.8l-0.3,0.2L25.1,174.3z"/>
	<path fill="#FFFFFF" d="M28.3,155l0.3-0.1l2.5,5.6l-0.3,0.1l-0.1-0.4c-0.1-0.3-0.3-0.5-0.5-0.6c-0.1-0.1-0.3-0.2-0.5-0.2
		c-0.1,0-0.5,0.2-1,0.4l-7.1,3.1c-0.6,0.3-1,0.5-1,0.6c-0.1,0.2-0.1,0.3-0.2,0.5c0,0.2,0.1,0.5,0.2,0.8l0.2,0.4l-0.3,0.2l-2.5-5.6
		l0.3-0.2l0.1,0.3c0.2,0.4,0.3,0.6,0.5,0.7c0.1,0.1,0.3,0.2,0.5,0.2c0.1,0,0.5-0.1,1-0.4l7.1-3.2c0.6-0.2,0.9-0.4,1-0.5
		s0.2-0.3,0.2-0.6c0-0.2,0-0.4-0.2-0.7L28.3,155z"/>
	<path fill="#FFFFFF" d="M13.1,145.9l0.2-0.1c0.2,0.4,0.6,0.6,1.1,0.9c0.4,0.2,1.1,0.3,2.3,0.4l9.8,1.1l0.1,0.2l-7.7,6.8
		c-1,0.8-1.5,1.4-1.6,1.6c-0.2,0.2-0.2,0.6-0.2,1l-0.3,0.1l-1.6-5.5l0.3-0.1l0.1,0.2c0.2,0.5,0.3,0.8,0.5,0.9
		c0.1,0.1,0.3,0.1,0.4,0.1c0.1-0.1,0.2-0.2,0.3-0.3c0.1,0,0.5-0.3,0.9-0.7l4.8-4.2l-5.7-0.6c-0.7-0.1-1.1-0.1-1.4-0.1
		c-0.2,0-0.3,0-0.5,0.1c-0.1,0-0.3,0.1-0.4,0.2c-0.1,0.2-0.1,0.3-0.1,0.5c-0.1,0.3,0,0.6,0.1,1l-0.3,0.1L13.1,145.9z"/>
	<path fill="#FFFFFF" d="M12.6,139.4l4.7-0.9v-0.3c-0.2-0.8-0.5-1.3-1-1.4c-0.5-0.2-1.3-0.3-2.1-0.2l-0.1-0.3l6-1.2l0.1,0.3
		c-0.6,0.2-1.2,0.5-1.6,0.7c-0.4,0.3-0.6,0.6-0.7,0.9c-0.1,0.4-0.1,0.7,0,1.3l3.3-0.6c0.6-0.1,1.1-0.2,1.1-0.2
		c0.2-0.1,0.3-0.2,0.3-0.5c0.1-0.1,0.1-0.4,0-0.6l-0.2-0.7c-0.2-1-0.6-1.9-1.2-2.4c-0.6-0.6-1.5-0.9-2.6-1V132l3.8-0.1l2,9.9
		l-0.3,0.1l-0.1-0.4c-0.1-0.4-0.1-0.6-0.4-0.8c-0.2-0.2-0.3-0.2-0.5-0.2c-0.2-0.1-0.5,0-1.1,0.1l-7.6,1.5c-0.5,0.1-0.9,0.2-0.9,0.2
		c-0.2,0.1-0.4,0.2-0.4,0.4c-0.1,0.3-0.1,0.6-0.1,1l0.1,0.4h-0.3l-1.9-9.7l3.4-0.7v0.3c-0.8,0.4-1.4,0.7-1.6,1
		c-0.3,0.5-0.5,0.9-0.6,1.5c0,0.3,0.1,0.9,0.3,1.8L12.6,139.4z"/>
	<path fill="#FFFFFF" d="M16.6,125.8l3.2-0.1c0.6-0.1,1-0.1,1.2-0.2c0.2-0.1,0.3-0.3,0.4-0.5c0.1-0.2,0.1-0.6,0.1-1.1l0.3-0.1
		l0.2,6.1h-0.3c0-0.5-0.1-1-0.2-1.1c-0.1-0.1-0.3-0.2-0.4-0.4c-0.2-0.1-0.6-0.1-1.3-0.1l-7.5,0.4c-0.6,0-1.1,0-1.2,0
		c-0.2,0.2-0.3,0.3-0.4,0.5c-0.1,0.3-0.1,0.6-0.1,1.1h-0.3l-0.2-5.5c0-1.4,0-2.5,0.2-3.2c0.2-0.6,0.5-1.1,1-1.6s1.1-0.7,1.8-0.7
		c0.9,0,1.6,0.2,2.2,0.8c0.4,0.4,0.7,1,0.9,1.6l3.9-2.9c0.5-0.4,0.9-0.7,0.9-0.8c0.2-0.2,0.2-0.5,0.3-0.9h0.4l0.1,3.8l-5.2,4
		L16.6,125.8z M10.8,126l5.1-0.2v-0.5c0-0.8-0.1-1.4-0.3-1.8c-0.2-0.4-0.5-0.7-0.8-0.9c-0.5-0.2-1-0.3-1.5-0.3c-0.9,0-1.5,0.3-2,0.7
		c-0.3,0.5-0.6,1.1-0.5,2V126z"/>
	<path fill="#FFFFFF" d="M10.3,108l3.9,0.1v0.4c-1,0.1-1.8,0.4-2.4,1.1c-0.7,0.6-1,1.3-1.1,2.1c0,0.6,0.1,1.1,0.4,1.4
		c0.3,0.4,0.6,0.6,1.1,0.7c0.3,0,0.5-0.1,0.8-0.2c0.2-0.1,0.5-0.4,0.8-0.7c0.2-0.3,0.6-0.9,1.2-1.8c0.8-1.3,1.5-2.2,2.2-2.7
		c0.7-0.4,1.3-0.6,2.1-0.5c0.9,0.1,1.8,0.5,2.5,1.3c0.6,0.8,0.9,1.9,0.8,3c0,0.4,0,0.7-0.2,1.1c-0.1,0.3-0.2,0.7-0.5,1.2
		c-0.1,0.3-0.2,0.5-0.2,0.7c0,0.1,0,0.3,0.1,0.5s0.2,0.3,0.5,0.5v0.3l-4.4-0.3v-0.4c1.2-0.1,2.2-0.5,2.9-1.3
		c0.7-0.6,1.1-1.4,1.2-2.3c0.1-0.6-0.1-1.1-0.4-1.5c-0.3-0.5-0.7-0.7-1.2-0.7c-0.2,0-0.5,0-0.8,0.1s-0.6,0.4-0.8,0.7
		c-0.3,0.3-0.6,0.8-1.1,1.6c-0.6,1-1.1,1.7-1.5,2.1c-0.4,0.5-0.8,0.8-1.3,1.1c-0.5,0.2-1,0.3-1.5,0.2c-0.9,0-1.7-0.4-2.3-1.2
		c-0.6-0.7-0.9-1.6-0.8-2.6c0.1-0.4,0.1-0.8,0.2-1.1c0.1-0.3,0.3-0.6,0.5-1c0.2-0.3,0.3-0.7,0.3-0.8s0-0.3-0.1-0.3
		c-0.1-0.1-0.3-0.2-0.7-0.3L10.3,108z"/>
	<path fill="#FFFFFF" d="M23.1,100.4l0.3,0.1l-0.9,6.1h-0.3l0.1-0.4c0-0.3,0-0.6-0.1-0.9c-0.1-0.1-0.2-0.3-0.4-0.4
		c-0.1,0-0.5-0.2-1.1-0.2l-7.6-1.2c-0.6-0.1-1-0.1-1.2-0.1c-0.1,0-0.3,0.1-0.4,0.3c-0.1,0.2-0.2,0.4-0.3,0.8l-0.1,0.4l-0.3-0.1
		l1-6.1h0.3L12,99.1c-0.1,0.4-0.1,0.6,0.1,0.8c0.1,0.1,0.2,0.3,0.4,0.4c0.1,0,0.4,0.2,1,0.2l7.7,1.3c0.5,0.1,1,0.1,1.1,0.1
		c0.2,0,0.4-0.1,0.5-0.3c0.2-0.2,0.2-0.4,0.3-0.8V100.4z"/>
	<path fill="#FFFFFF" d="M14.9,86l3.1,0.7V87c-0.7,0-1.3,0-1.6,0.2c-0.4,0.1-0.8,0.3-1.1,0.7c-0.2,0.2-0.3,0.5-0.4,1.1l-0.2,0.8
		l8.8,2.4c0.6,0.2,1,0.3,1.1,0.2c0.1,0,0.3-0.1,0.5-0.2c0.1-0.2,0.3-0.5,0.3-0.8l0.1-0.4l0.3,0.1l-1.6,6L23.9,97l0.1-0.4
		c0.1-0.3,0.1-0.6,0-0.8c0-0.2-0.1-0.4-0.3-0.5c-0.1-0.1-0.4-0.2-1-0.4l-8.8-2.4l-0.3,0.8c-0.2,0.8-0.1,1.4,0.1,1.8
		c0.4,0.6,1,1.1,1.8,1.5l-0.1,0.3l-3.1-0.8L14.9,86z"/>
	<path fill="#FFFFFF" d="M26.2,80.1L24.6,84l1,0.8c0.2,0.3,0.5,0.5,0.8,0.6s0.6,0.1,0.8-0.1c0.1-0.1,0.4-0.5,0.7-1l0.3,0.1l-1.5,3.7
		L26.4,88c0.1-0.4,0.1-0.8-0.1-1.3c-0.2-0.2-0.6-0.7-1.3-1.5l-7.1-7.4l0.1-0.2l10.5-0.4c1,0,1.6-0.1,2-0.2c0.2-0.1,0.4-0.3,0.6-0.6
		l0.3,0.1l-2.1,5.3L29,81.7l0.1-0.1c0.1-0.4,0.2-0.8,0.2-1c0-0.1-0.1-0.3-0.3-0.4c-0.1,0-0.2,0-0.4,0h-0.7h-1.7V80.1z M25.5,80.1
		L21,80.2l3.1,3.2L25.5,80.1z"/>
	<path fill="#FFFFFF" d="M25,63.2l3.5,1.8l-0.2,0.3c-0.9-0.3-1.8-0.3-2.6,0c-0.9,0.3-1.5,0.8-1.9,1.4c-0.3,0.5-0.4,1-0.3,1.5
		c0.1,0.5,0.4,0.8,0.7,1c0.2,0.1,0.4,0.2,0.6,0.2c0.3,0,0.7-0.1,1.1-0.3c0.3-0.2,0.9-0.6,1.8-1.2c1.2-0.9,2.3-1.4,3.1-1.5
		c0.7-0.1,1.4,0,2.1,0.4c0.8,0.5,1.4,1.2,1.7,2.3c0.3,1,0,2-0.5,3c-0.3,0.4-0.5,0.7-0.7,0.9c-0.2,0.3-0.5,0.5-0.9,0.9
		c-0.3,0.3-0.5,0.4-0.5,0.6c0,0.1-0.1,0.3-0.1,0.5s0.1,0.4,0.3,0.6L32,75.9l-3.8-2.1l0.1-0.3c1.2,0.4,2.3,0.5,3.2,0.1
		c0.9-0.3,1.6-0.8,2-1.6c0.3-0.6,0.4-1.1,0.2-1.6c-0.1-0.5-0.3-0.8-0.8-1.1c-0.2-0.1-0.5-0.2-0.8-0.2s-0.6,0.1-1,0.2
		c-0.3,0.2-0.9,0.5-1.6,1c-1,0.7-1.7,1.1-2.3,1.3c-0.6,0.3-1.1,0.5-1.6,0.5c-0.6,0-1-0.2-1.5-0.5c-0.8-0.5-1.3-1.1-1.6-2
		c-0.2-0.9-0.1-1.9,0.4-2.8c0.1-0.3,0.4-0.6,0.6-0.8c0.2-0.3,0.5-0.5,0.8-0.7c0.4-0.2,0.6-0.4,0.7-0.5c0.1-0.2,0.1-0.3,0-0.4
		c0-0.1-0.1-0.3-0.4-0.5L25,63.2z"/>
</g>
</svg>
